<svg height="512pt" viewBox="-91 0 512 512" width="512pt" xmlns="http://www.w3.org/2000/svg"><path d="m329.636719 74.921875c0-41.3125-33.609375-74.921875-74.917969-74.921875h-69.199219c-24.164062 48.328125-30.8125 61.429688-87.238281 98.074219-20.863281 13.550781-44.511719 28.910156-68.488281 53.507812-26.984375 27.679688-36.847657 67.574219-24.585938 106.550781 13.488281 42.867188 53.546875 71.515626 99.859375 71.511719h.871094c31.460938-.246093 49.328125-11.191406 63.679688-19.988281 10.398437-6.371094 16.695312-9.976562 25.164062-9.976562 7.851562 0 10.824219 2.8125 17.382812 9.742187 7.957032 8.40625 18.851563 19.917969 41.644532 20.21875.316406.003906.636718.007813.953125.007813 34.871093 0 66.261719-25.269532 73.246093-59.128907 1.242188-6.015625 1.757813-12.058593 1.574219-18.023437h.054688zm-30.976563 189.542969c-4.132812 20.019531-23.644531 35.480468-44.457031 35.210937-10.128906-.132812-13.730469-3.941406-20.277344-10.855469-7.628906-8.0625-18.082031-19.109374-39.144531-19.109374-17.332031 0-29.273438 7.316406-40.820312 14.394531-12.917969 7.914062-25.117188 15.390625-48.253907 15.570312-.214843 0-.421875.003907-.632812.003907-33.152344 0-61.75-20.246094-71.277344-50.539063-8.738281-27.78125-2.171875-56.503906 17.453125-76.640625 21.648438-22.207031 42.851562-35.976562 63.355469-49.292969 42.65625-27.703125 65.527343-45.4375 89.4375-93.238281h50.675781c24.785156 0 44.953125 20.164062 44.953125 44.949219v119.851562c-12.832031-9.644531-28.511719-14.960937-44.953125-14.960937-20.011719 0-38.824219 7.789062-52.976562 21.941406l21.191406 21.191406c8.488281-8.492187 19.777344-13.167968 31.785156-13.167968 27.617188.003906 50.046875 25.085937 43.941406 54.691406zm0 0"/><path d="m98.953125 367.191406-16.621094 24.9375c5.949219 3.96875 9.363281 10.347656 9.363281 17.5s-3.414062 13.53125-9.363281 17.5c-14.222656 9.480469-22.710937 25.34375-22.710937 42.433594 0 17.09375 8.488281 32.957031 22.710937 42.4375l16.621094-24.933594c-5.949219-3.96875-9.367187-10.347656-9.367187-17.503906 0-7.152344 3.417968-13.53125 9.367187-17.5 14.222656-9.480469 22.710937-25.34375 22.710937-42.433594s-8.488281-32.957031-22.710937-42.4375zm0 0"/><path d="m173.875 367.191406-16.625 24.9375c5.953125 3.96875 9.367188 10.347656 9.367188 17.5s-3.414063 13.53125-9.367188 17.5c-14.21875 9.480469-22.710938 25.34375-22.710938 42.433594 0 17.09375 8.492188 32.957031 22.710938 42.4375l16.625-24.933594c-5.953125-3.96875-9.367188-10.347656-9.367188-17.503906 0-7.152344 3.414063-13.53125 9.367188-17.5 14.21875-9.480469 22.710938-25.34375 22.710938-42.433594s-8.492188-32.957031-22.710938-42.4375zm0 0"/><path d="m248.792969 367.191406-16.621094 24.9375c5.949219 3.96875 9.363281 10.347656 9.363281 17.5s-3.414062 13.53125-9.363281 17.5c-14.222656 9.480469-22.710937 25.34375-22.710937 42.433594 0 17.09375 8.488281 32.957031 22.710937 42.4375l16.621094-24.933594c-5.949219-3.96875-9.367188-10.347656-9.367188-17.503906 0-7.152344 3.417969-13.53125 9.367188-17.5 14.222656-9.480469 22.710937-25.34375 22.710937-42.433594s-8.488281-32.957031-22.710937-42.4375zm0 0"/></svg>